<?xml version="1.0" encoding="UTF-8" standalone="no"?>
<!DOCTYPE svg PUBLIC "-//W3C//DTD SVG 1.1//EN" "http://www.w3.org/Graphics/SVG/1.1/DTD/svg11.dtd">
<svg xmlns="http://www.w3.org/2000/svg" version="1.1" viewBox="0.00 0.00 264.00 324.00" fill="#7DBEFF">
<path fill="#7DBEFF" d="
  M 129.39 0.00
  L 134.50 0.00
  L 137.80 1.01
  L 140.63 2.65
  L 140.63 2.65
  L 141.95 3.79
  L 143.14 5.11
  L 144.58 7.29
  L 145.55 9.61
  L 145.55 9.61
  L 145.55 9.61
  L 146.09 12.46
  L 146.02 15.50
  L 145.57 17.52
  L 144.72 19.60
  L 143.54 21.65
  L 142.07 23.57
  L 140.49 25.16
  L 138.76 26.48
  L 137.05 27.38
  L 135.29 27.89
  L 132.71 28.17
  L 130.28 28.11
  L 127.99 27.71
  L 125.85 26.98
  L 125.85 26.98
  L 125.85 26.98
  L 124.32 26.20
  L 122.88 25.22
  L 120.25 22.70
  L 118.76 20.60
  L 117.71 18.35
  L 117.71 18.35
  L 117.08 15.85
  L 116.91 13.19
  L 117.21 10.88
  L 117.97 8.65
  L 119.19 6.46
  L 120.78 4.48
  L 122.67 2.77
  L 124.81 1.41
  L 127.04 0.49
  L 129.39 0.00
  Z"
/>
<path fill="#52AAE7" d="
  M 0.00 164.64
  L 0.00 153.49
  L 0.64 145.14
  L 1.74 136.93
  L 3.30 128.85
  L 5.33 120.90
  L 5.33 120.90
  L 7.00 115.47
  L 8.90 110.10
  L 11.01 104.80
  L 13.35 99.56
  L 16.78 92.84
  L 20.61 86.38
  L 24.92 80.05
  L 29.61 73.99
  L 34.80 68.04
  L 40.33 62.38
  L 46.32 56.90
  L 52.62 51.73
  L 57.03 48.49
  L 61.78 45.38
  L 66.74 42.48
  L 72.03 39.72
  L 77.64 37.10
  L 83.54 34.63
  L 89.87 32.26
  L 96.57 30.01
  L 101.15 28.81
  L 106.01 28.04
  L 106.06 28.04
  L 106.69 28.27
  L 106.96 28.89
  L 106.97 39.94
  L 106.64 41.02
  L 105.65 41.58
  L 101.29 42.66
  L 96.98 43.94
  L 92.64 45.46
  L 88.16 47.24
  L 79.05 51.52
  L 69.68 56.76
  L 62.88 61.23
  L 56.30 66.36
  L 50.14 71.97
  L 44.26 78.19
  L 38.76 84.93
  L 33.75 92.05
  L 29.17 99.62
  L 25.13 107.47
  L 21.94 114.71
  L 19.34 121.71
  L 17.31 128.48
  L 15.86 135.01
  L 14.69 142.94
  L 14.00 151.10
  L 13.79 159.48
  L 14.07 168.10
  L 14.84 175.99
  L 16.19 183.85
  L 18.12 191.69
  L 20.63 199.49
  L 22.59 204.30
  L 25.82 211.19
  L 28.80 217.51
  L 30.68 221.28
  L 33.00 225.23
  L 35.76 229.34
  L 38.96 233.63
  L 42.57 238.05
  L 46.31 242.26
  L 50.18 246.24
  L 54.18 250.01
  L 58.32 253.56
  L 62.58 256.89
  L 66.98 260.00
  L 71.52 262.90
  L 79.55 267.33
  L 87.97 271.13
  L 96.77 274.29
  L 105.96 276.82
  L 106.68 277.27
  L 106.96 278.07
  L 107.09 288.97
  L 106.75 289.79
  L 105.92 290.10
  L 105.86 290.10
  L 101.15 289.49
  L 96.58 288.60
  L 92.13 287.41
  L 87.81 285.93
  L 82.59 283.83
  L 77.51 281.56
  L 72.56 279.13
  L 67.74 276.53
  L 63.05 273.76
  L 58.49 270.83
  L 54.06 267.73
  L 49.76 264.47
  L 49.76 264.47
  L 44.69 260.25
  L 39.82 255.79
  L 34.12 249.68
  L 27.17 241.09
  L 22.66 234.84
  L 18.57 228.34
  L 18.57 228.34
  L 15.20 222.15
  L 12.18 215.76
  L 9.58 209.42
  L 7.29 203.01
  L 5.30 196.53
  L 3.61 189.97
  L 3.61 189.97
  L 3.61 189.97
  L 2.30 183.73
  L 1.26 177.43
  L 0.50 171.07
  L 0.00 164.64
  Z"
/>
<path fill="#52AAE7" d="
  M 231.70 223.51
  L 235.30 217.45
  L 238.61 210.94
  L 241.52 204.13
  L 244.02 197.15
  L 246.12 189.90
  L 247.77 182.59
  L 248.98 175.17
  L 249.71 167.81
  L 250.05 157.69
  L 249.69 148.06
  L 248.64 138.91
  L 246.88 130.26
  L 244.67 122.73
  L 241.02 112.54
  L 240.07 109.98
  L 238.32 105.81
  L 236.04 101.43
  L 233.21 96.73
  L 229.39 90.98
  L 225.38 85.42
  L 221.23 80.24
  L 216.84 75.31
  L 212.35 70.78
  L 207.64 66.55
  L 202.85 62.73
  L 197.88 59.23
  L 192.67 56.02
  L 183.33 50.96
  L 175.03 47.13
  L 167.03 44.17
  L 159.01 42.00
  L 157.61 41.70
  L 157.17 41.46
  L 157.02 40.98
  L 157.02 28.65
  L 157.21 28.11
  L 157.77 28.03
  L 166.71 30.00
  L 173.60 32.17
  L 185.91 37.20
  L 190.97 39.56
  L 195.30 41.83
  L 200.58 44.92
  L 205.65 48.19
  L 210.53 51.62
  L 215.21 55.23
  L 219.69 59.01
  L 223.97 62.96
  L 228.05 67.09
  L 231.93 71.39
  L 231.93 71.39
  L 231.93 71.39
  L 231.93 71.39
  L 231.93 71.39
  L 231.93 71.39
  L 236.04 76.40
  L 239.90 81.62
  L 243.50 87.06
  L 246.86 92.72
  L 249.97 98.59
  L 252.83 104.67
  L 255.44 110.97
  L 257.80 117.49
  L 259.18 121.94
  L 260.37 126.60
  L 261.39 131.49
  L 262.22 136.59
  L 263.31 146.44
  L 263.77 156.30
  L 263.77 156.30
  L 263.66 164.86
  L 263.08 173.44
  L 262.02 182.02
  L 260.49 190.61
  L 258.87 197.25
  L 256.84 203.40
  L 252.60 213.63
  L 247.80 223.32
  L 242.45 232.47
  L 236.55 241.08
  L 231.15 247.88
  L 225.40 254.18
  L 219.32 259.96
  L 212.90 265.23
  L 206.15 270.06
  L 198.97 274.59
  L 191.36 278.83
  L 183.32 282.78
  L 182.19 283.29
  L 176.70 285.50
  L 170.94 287.36
  L 164.89 288.88
  L 158.51 290.06
  L 157.86 290.07
  L 157.39 289.85
  L 157.39 289.85
  L 157.11 289.43
  L 157.02 288.79
  L 157.01 278.75
  L 157.14 277.72
  L 157.56 276.92
  L 157.56 276.92
  L 158.25 276.33
  L 159.23 275.96
  L 164.67 274.59
  L 170.03 272.98
  L 175.16 271.16
  L 180.20 269.09
  L 184.97 266.84
  L 189.64 264.34
  L 194.09 261.64
  L 198.43 258.68
  L 203.08 255.17
  L 207.54 251.47
  L 211.81 247.60
  L 215.90 243.54
  L 215.90 243.54
  L 215.90 243.54
  L 220.19 238.86
  L 224.25 233.96
  L 228.09 228.85
  L 231.70 223.51
  Z"
/>
<path fill="#52AAE7" d="
  M 123.88 36.05
  L 139.17 36.06
  L 139.75 36.31
  L 139.98 36.89
  L 139.87 40.61
  L 139.73 41.03
  L 139.33 41.35
  L 124.21 46.83
  L 123.47 46.73
  L 123.12 46.07
  L 123.07 36.87
  L 123.30 36.29
  L 123.88 36.05
  Z"
/>
<path fill="#52AAE7" d="
  M 139.62 54.34
  L 123.66 59.81
  L 123.33 59.75
  L 123.19 59.48
  L 123.05 53.59
  L 123.09 53.42
  L 123.28 53.24
  L 139.55 47.41
  L 139.89 47.46
  L 140.04 47.76
  L 139.87 54.01
  L 139.62 54.34
  Z"
/>
<path fill="#52AAE7" d="
  M 139.53 66.96
  L 123.81 72.80
  L 123.27 72.73
  L 123.03 72.24
  L 123.21 65.97
  L 123.32 65.64
  L 123.60 65.44
  L 139.26 60.09
  L 139.70 60.11
  L 140.03 60.65
  L 139.91 66.43
  L 139.80 66.75
  L 139.53 66.96
  Z"
/>
<circle fill="#52AAE7" cx="156.48" cy="69.10" r="6.54"/>
<ellipse fill="#52AAE7" cx="0.00" cy="0.00" transform="translate(107.15,69.14) rotate(2.1)" rx="6.77" ry="6.62"/>
<path fill="#52AAE7" d="
  M 123.43 78.84
  L 139.42 73.18
  L 139.71 73.20
  L 139.91 73.52
  L 140.02 79.35
  L 139.99 79.52
  L 139.78 79.70
  L 123.53 85.67
  L 123.21 85.64
  L 123.03 85.32
  L 123.18 79.17
  L 123.25 78.97
  L 123.43 78.84
  Z"
/>
<path fill="#52AAE7" d="
  M 104.85 82.03
  L 111.59 82.13
  L 112.04 82.30
  L 112.29 82.71
  L 112.23 83.19
  L 111.88 83.53
  L 104.95 86.69
  L 104.24 86.63
  L 103.92 85.98
  L 104.11 82.72
  L 104.26 82.32
  L 104.85 82.03
  Z"
/>
<path fill="#52AAE7" d="
  M 157.80 85.56
  L 153.65 86.92
  L 153.07 86.96
  L 152.53 86.74
  L 152.15 86.30
  L 152.01 85.73
  L 152.00 83.28
  L 152.16 82.67
  L 152.62 82.20
  L 153.25 82.03
  L 157.92 82.02
  L 158.78 82.36
  L 159.15 83.04
  L 159.06 83.80
  L 158.55 84.90
  L 158.24 85.31
  L 157.80 85.56
  Z"
/>
<path fill="#52AAE7" d="
  M 139.27 93.14
  L 124.41 99.14
  L 123.99 99.20
  L 123.59 99.06
  L 123.30 98.75
  L 123.18 98.34
  L 123.03 92.69
  L 123.10 92.30
  L 123.61 91.83
  L 138.91 86.21
  L 139.51 86.21
  L 139.96 86.55
  L 140.11 87.10
  L 139.83 92.36
  L 139.71 92.76
  L 139.27 93.14
  Z"
/>
<path fill="#52AAE7" d="
  M 104.31 91.31
  L 111.52 89.11
  L 111.76 89.13
  L 111.93 89.41
  L 111.96 92.33
  L 111.76 92.63
  L 104.35 95.61
  L 104.13 95.62
  L 103.91 95.30
  L 104.08 91.61
  L 104.31 91.31
  Z"
/>
<path fill="#52AAE7" d="
  M 158.32 93.88
  L 153.24 95.77
  L 152.77 95.82
  L 152.33 95.64
  L 152.03 95.28
  L 151.94 94.81
  L 151.94 94.81
  L 152.04 92.95
  L 152.27 92.38
  L 152.68 92.09
  L 157.84 90.21
  L 158.68 90.30
  L 159.04 90.70
  L 159.14 91.22
  L 158.94 93.07
  L 158.74 93.57
  L 158.32 93.88
  Z"
/>
<path fill="#52AAE7" d="
  M 104.54 100.04
  L 111.08 97.92
  L 111.50 97.93
  L 111.81 98.21
  L 111.88 98.50
  L 111.88 100.67
  L 111.77 101.03
  L 111.47 101.25
  L 104.54 103.59
  L 104.19 103.61
  L 103.83 103.35
  L 103.74 102.92
  L 104.13 100.53
  L 104.54 100.04
  Z"
/>
<path fill="#52AAE7" d="
  M 154.10 100.15
  L 155.88 99.58
  L 158.10 98.57
  L 158.63 98.39
  L 158.99 98.45
  L 158.99 98.45
  L 159.17 98.76
  L 159.19 99.32
  L 159.05 100.68
  L 158.63 101.78
  L 157.71 102.53
  L 156.21 103.13
  L 153.25 103.82
  L 152.72 103.78
  L 152.26 103.52
  L 151.96 103.09
  L 151.86 102.57
  L 151.86 102.57
  L 151.88 102.37
  L 152.13 101.60
  L 152.54 100.98
  L 152.54 100.98
  L 153.21 100.47
  L 154.10 100.15
  Z"
/>
<path fill="#52AAE7" d="
  M 139.68 110.01
  L 123.18 109.97
  L 122.91 109.80
  L 122.88 109.65
  L 123.23 104.95
  L 123.43 104.69
  L 139.54 99.53
  L 139.73 99.54
  L 139.93 99.82
  L 139.98 109.71
  L 139.68 110.01
  Z"
/>
<path fill="#52AAE7" d="
  M 110.73 106.30
  L 111.29 106.18
  L 111.69 106.30
  L 111.69 106.30
  L 111.69 106.30
  L 111.94 106.63
  L 112.02 107.20
  L 112.02 109.82
  L 111.70 110.59
  L 110.93 110.91
  L 105.39 110.87
  L 104.75 110.74
  L 104.21 110.35
  L 103.86 109.85
  L 103.76 109.36
  L 103.76 109.36
  L 104.05 108.74
  L 104.58 108.32
  L 104.91 108.19
  L 110.73 106.30
  Z"
/>
<path fill="#52AAE7" d="
  M 158.15 110.93
  L 152.57 110.78
  L 152.07 110.59
  L 151.81 110.12
  L 151.91 109.59
  L 152.32 109.25
  L 158.02 107.23
  L 158.14 107.19
  L 158.80 107.38
  L 159.07 108.01
  L 158.96 110.18
  L 158.76 110.66
  L 158.15 110.93
  Z"
/>
<path fill="#52AAE7" d="
  M 180.73 141.22
  L 178.83 137.24
  L 176.69 134.04
  L 174.32 131.64
  L 171.70 130.03
  L 168.93 129.00
  L 165.91 128.28
  L 162.64 127.86
  L 159.13 127.74
  L 132.27 127.88
  L 105.65 127.80
  L 101.19 127.93
  L 97.53 128.40
  L 94.40 129.27
  L 91.65 130.57
  L 88.82 132.65
  L 86.32 135.35
  L 84.76 137.57
  L 83.66 139.63
  L 83.30 140.22
  L 82.85 140.50
  L 82.85 140.50
  L 82.32 140.47
  L 81.71 140.12
  L 76.74 136.25
  L 76.22 135.70
  L 75.90 135.02
  L 75.80 134.28
  L 75.94 133.54
  L 77.16 130.62
  L 78.65 128.01
  L 80.41 125.71
  L 82.43 123.73
  L 82.43 123.73
  L 84.96 121.92
  L 87.80 120.48
  L 90.28 119.74
  L 93.61 119.23
  L 97.79 118.96
  L 102.82 118.91
  L 138.79 118.95
  L 166.02 118.92
  L 170.61 119.23
  L 174.40 120.11
  L 177.37 121.39
  L 179.89 123.00
  L 182.10 125.00
  L 184.11 127.50
  L 185.96 130.59
  L 187.77 134.44
  L 187.79 134.64
  L 187.70 134.78
  L 181.06 141.29
  L 181.03 141.31
  L 180.73 141.22
  Z"
/>
<path fill="#52AAE7" d="
  M 110.42 237.36
  L 107.63 232.03
  L 105.63 226.73
  L 104.43 221.47
  L 104.02 216.25
  L 104.07 138.24
  L 104.36 137.37
  L 105.23 137.06
  L 109.93 137.00
  L 110.48 137.07
  L 110.88 137.30
  L 110.88 137.30
  L 111.19 138.22
  L 111.53 154.47
  L 111.89 172.62
  L 111.89 205.12
  L 111.66 238.46
  L 111.48 239.21
  L 110.96 238.64
  L 110.94 238.60
  L 110.73 238.08
  L 110.53 237.55
  L 110.42 237.36
  Z"
/>
<path fill="#52AAE7" d="
  M 132.77 324.00
  L 131.44 324.00
  L 127.94 318.81
  L 125.02 313.51
  L 122.72 308.17
  L 120.99 302.68
  L 119.92 297.60
  L 119.31 292.36
  L 119.01 283.22
  L 119.02 245.44
  L 119.11 236.95
  L 119.14 223.65
  L 119.03 214.84
  L 119.06 137.34
  L 119.12 137.16
  L 119.30 137.10
  L 128.65 137.10
  L 128.77 137.14
  L 128.83 137.28
  L 128.89 289.24
  L 129.04 293.71
  L 129.53 297.17
  L 130.41 300.00
  L 131.70 302.25
  L 132.08 302.50
  L 132.39 302.16
  L 133.36 299.51
  L 134.06 296.93
  L 134.50 294.42
  L 134.67 291.99
  L 134.84 276.75
  L 135.07 209.32
  L 134.99 138.06
  L 135.27 137.36
  L 135.98 137.06
  L 135.98 137.06
  L 135.98 137.06
  L 142.79 137.05
  L 143.60 137.39
  L 143.94 138.21
  L 143.96 288.93
  L 143.79 293.29
  L 143.28 297.71
  L 142.43 302.19
  L 141.25 306.74
  L 140.01 310.23
  L 138.18 314.28
  L 135.77 318.86
  L 132.77 324.00
  Z"
/>
<path fill="#52AAE7" d="
  M 152.38 238.87
  L 152.28 238.96
  L 152.25 238.83
  L 152.13 236.37
  L 151.99 234.31
  L 151.99 137.98
  L 152.25 137.20
  L 153.03 136.95
  L 157.98 137.03
  L 158.72 137.29
  L 158.97 138.03
  L 158.98 212.55
  L 158.71 221.30
  L 158.33 224.78
  L 157.61 228.06
  L 156.71 230.79
  L 155.56 233.45
  L 154.10 236.17
  L 152.38 238.87
  Z"
/>
</svg>
